# xmcd
#
# Track frame offsets: 
#        150
#        74297
#        108597
#        141944
#
# Disc length: 2180 seconds
#
# Revision: 4
# Processed by: cddbd v1.5.2PL0 Copyright (c) Steve Scherf et al.
# Submitted via: ExactAudioCopy v1.0b1
#
DISCID=38088204
DTITLE=Niemen - Od poczatku CD5 - Niemen Enigmatic
DYEAR=2002
DGENRE=Blues
TTITLE0=BEMA PAMIECI ZALOBNY - RAPSOD
TTITLE1=JEDNEGO SERCA
TTITLE2=KWIATY OJCZYSTE
TTITLE3=MOW DO MNIE JESZCZE
EXTD=
EXTT0=
EXTT1=
EXTT2=
EXTT3=
PLAYORDER=
